<svg width="20" height="20" viewBox="0 0 89 97" fill="none" xmlns="http://www.w3.org/2000/svg">
<path d="M43.6521 0.890531L1.78741 23.9538C1.09161 24.3371 1.09902 25.3396 1.80041 25.7126L24.1751 37.6111C24.4789 37.7727 24.8445 37.7667 25.1428 37.5953L43.6372 26.9707C43.9457 26.7934 44.3252 26.7935 44.6337 26.9708L63.1186 37.5969C63.4169 37.7684 63.7825 37.7744 64.0864 37.6129L86.4724 25.7118C87.1739 25.3388 87.1813 24.3362 86.4854 23.9529L44.6171 0.890506C44.3167 0.725041 43.9525 0.72505 43.6521 0.890531Z" fill="#2D87C3"></path>
<path d="M24.1339 43.7047L1.63747 31.745C0.971422 31.391 0.168084 31.8737 0.168053 32.628L0.166406 72.6763C0.166391 73.0408 0.36469 73.3764 0.683955 73.5523L39.9919 95.2027C40.6584 95.5697 41.4744 95.0876 41.4744 94.3267V70.4773C41.4744 70.1193 41.283 69.7886 40.9727 69.6102L25.1662 60.5265C24.8558 60.3482 24.6644 60.0175 24.6644 59.6595V44.5877C24.6644 44.2179 24.4604 43.8783 24.1339 43.7047Z" fill="#2D87C3"></path>
<path d="M64.1358 43.7047L86.6322 31.745C87.2982 31.391 88.1016 31.8737 88.1016 32.628L88.1032 72.6763C88.1033 73.0408 87.905 73.3764 87.5857 73.5523L48.2777 95.2027C47.6112 95.5697 46.7953 95.0876 46.7953 94.3267V70.4773C46.7953 70.1193 46.9866 69.7886 47.297 69.6102L63.1035 60.5265C63.4139 60.3482 63.6052 60.0175 63.6052 59.6595V44.5877C63.6052 44.2179 63.8093 43.8783 64.1358 43.7047Z" fill="#2D87C3"></path>
</svg>