<?xml version="1.0" encoding="UTF-8"?><svg id="layer" xmlns="http://www.w3.org/2000/svg" viewBox="0 0 599.96 116"><defs><style>.cls-1{fill:#5865f2;}</style></defs><path class="cls-1" d="m127.06,9.7c-9.7-4.5-20.1-7.8-30.9-9.7-1.3,2.4-2.9,5.7-4,8.2-11.5-1.7-23-1.7-34.3,0-1.1-2.6-2.7-5.8-4-8.2-10.9,1.9-21.3,5.2-31,9.7C3.26,39.3-2.04,68.1.66,96.6c13,9.7,25.6,15.6,37.9,19.4,3.1-4.2,5.8-8.7,8.1-13.4-4.5-1.7-8.8-3.8-12.8-6.2,1.1-.8,2.1-1.6,3.1-2.5,24.7,11.5,51.5,11.5,75.9,0,1,.9,2.1,1.7,3.1,2.5-4.1,2.4-8.4,4.5-12.8,6.2,2.3,4.7,5.1,9.2,8.1,13.4,12.4-3.9,25-9.7,38-19.5,3.2-32.9-5.3-61.5-22.2-86.8ZM50.06,79.1c-7.4,0-13.5-6.9-13.5-15.3s5.9-15.3,13.5-15.3,13.6,6.9,13.5,15.3c0,8.4-6,15.3-13.5,15.3Zm49.8,0c-7.4,0-13.5-6.9-13.5-15.3s5.9-15.3,13.5-15.3,13.6,6.9,13.5,15.3c0,8.4-5.9,15.3-13.5,15.3Zm101.7-49.5h32.2c7.8,0,14.3,1.2,19.7,3.7,5.4,2.5,9.4,5.9,12.1,10.3s4,9.5,4,15.1-1.4,10.6-4.2,15.1c-2.8,4.5-7,8.1-12.7,10.7s-12.8,4-21.2,4h-29.9V29.6Zm29.5,44c5.2,0,9.2-1.3,12.1-4,2.8-2.7,4.2-6.3,4.2-10.9,0-4.3-1.3-7.7-3.8-10.2-2.5-2.6-6.3-3.8-11.3-3.8h-10.1v29h8.9v-.1Zm86.6,14.9c-4.5-1.2-8.5-2.9-12.1-5.1v-14c2.7,2.1,6.3,3.9,10.9,5.3,4.5,1.4,8.9,2.1,13.2,2.1,2,0,3.5-.3,4.5-.8s1.5-1.2,1.5-1.9c0-.8-.3-1.5-.8-2.1-.6-.6-1.6-1-3.2-1.4l-9.9-2.3c-5.7-1.3-9.7-3.2-12.1-5.6s-3.6-5.5-3.6-9.4c0-3.3,1-6.1,3.1-8.5s5.1-4.3,8.9-5.6c3.9-1.3,8.4-2,13.5-2,4.6,0,8.9.5,12.7,1.5,3.9,1,7,2.3,9.6,3.9v13.2c-2.6-1.6-5.6-2.8-9-3.8-3.4-.9-6.9-1.4-10.5-1.4-5.2,0-7.8.9-7.8,2.7,0,.8.4,1.5,1.2,1.9.8.4,2.3.9,4.4,1.3l8.3,1.5c5.4,1,9.4,2.6,12.1,5,2.6,2.4,4,5.9,4,10.6,0,5.1-2.2,9.2-6.6,12.2s-10.6,4.5-18.6,4.5c-4.6,0-9.2-.6-13.7-1.8Zm58.5-1.8c-4.7-2.4-8.3-5.6-10.7-9.6-2.4-4-3.6-8.6-3.6-13.7s1.2-9.6,3.7-13.6,6.1-7.1,10.9-9.4,10.5-3.4,17.2-3.4c8.3,0,15.1,1.8,20.6,5.3v15.4c-1.9-1.3-4.2-2.4-6.7-3.3-2.6-.8-5.3-1.3-8.2-1.3-5.1,0-9.1,1-12,2.9s-4.3,4.4-4.3,7.5,1.4,5.5,4.2,7.5c2.8,1.9,6.9,2.9,12.2,2.9,2.7,0,5.5-.4,8.1-1.2,2.7-.8,5-1.8,6.9-3v14.9c-6.1,3.7-13.1,5.6-21.1,5.6-6.7.1-12.5-1.1-17.2-3.5Zm58.7,0c-4.8-2.4-8.4-5.6-10.9-9.7s-3.8-8.7-3.8-13.7,1.2-9.6,3.8-13.5c2.5-4,6.1-7.1,10.9-9.3,4.7-2.3,10.4-3.4,16.9-3.4s12.2,1.1,16.9,3.4c4.7,2.3,8.3,5.3,10.8,9.3,2.5,3.9,3.7,8.5,3.7,13.6s-1.2,9.6-3.7,13.7-6.1,7.3-10.9,9.7c-4.8,2.4-10.4,3.5-16.9,3.5-6.5,0-12.1-1.2-16.8-3.6Zm25-14.9c2-2,3-4.8,3-8.1s-1-6.1-3-8c-2-2-4.7-3-8.2-3s-6.3,1-8.3,3-3,4.7-3,8,1,6.1,3,8.1,4.8,3.1,8.3,3.1,6.2-1.1,8.2-3.1Zm72.9-31.6v18.2c-2.1-1.4-4.8-2.1-8.2-2.1-4.4,0-7.8,1.4-10.2,4.1s-3.6,7-3.6,12.7v15.5h-20.2v-49.3h19.8v15.7c1.1-5.7,2.9-10,5.3-12.7,2.4-2.7,5.6-4.1,9.4-4.1,3.1,0,5.6.6,7.7,2Zm67.2-12.3v60.7h-20.2v-11c-1.7,4.2-4.3,7.3-7.8,9.5s-7.8,3.2-12.9,3.2c-4.6,0-8.6-1.1-12-3.4s-6-5.4-7.9-9.4c-1.8-4-2.8-8.4-2.8-13.5-.1-5.2.9-9.8,2.9-13.9s4.8-7.3,8.5-9.6c3.7-2.3,7.8-3.5,12.5-3.5,9.6,0,16.1,4.3,19.4,12.8v-22h20.3v.1Zm-23.2,43.5c2.1-2,3.1-4.7,3.1-8,0-3.1-1-5.7-3-7.7s-4.8-3-8.2-3-6.1,1-8.2,3c-2,2-3.1,4.6-3.1,7.8s1,5.8,3.1,7.8,4.7,3,8.1,3c3.4.2,6.1-.8,8.2-2.9Zm-290.2-26.9c5.6,0,10.1-4.1,10.1-9.3s-4.5-9.3-10.1-9.3-10.1,4.1-10.1,9.3,4.5,9.3,10.1,9.3Zm-10.1,6.4c6.2,2.7,13.8,2.8,20.2,0v38h-20.2v-38Z"/></svg>