<?xml version="1.0" encoding="UTF-8"?><svg id="Layer_1" xmlns="http://www.w3.org/2000/svg" viewBox="0 0 82.76 34.43"><defs><style>.cls-1{fill:#6772e5;fill-rule:evenodd;}</style></defs><path class="cls-1" d="m82.76,17.79c0-5.89-2.85-10.53-8.3-10.53s-8.78,4.64-8.78,10.48c0,6.92,3.91,10.41,9.52,10.41,2.74,0,4.81-.62,6.37-1.49v-4.6c-1.56.78-3.36,1.26-5.63,1.26s-4.21-.78-4.46-3.49h11.24c0-.3.05-1.49.05-2.05h0Zm-11.35-2.18c0-2.6,1.59-3.68,3.04-3.68s2.9,1.08,2.9,3.68h-5.93Zm-14.6-8.35c-2.25,0-3.7,1.06-4.51,1.79l-.3-1.42h-5.07v26.81l5.75-1.22.02-6.51c.83.6,2.05,1.45,4.07,1.45,4.11,0,7.86-3.3,7.86-10.6-.02-6.67-3.82-10.3-7.84-10.3h.01Zm-1.38,15.84c-1.36,0-2.16-.48-2.71-1.08l-.02-8.53c.6-.67,1.43-1.13,2.74-1.13,2.09,0,3.54,2.34,3.54,5.36s-1.43,5.38-3.54,5.38ZM39.04,5.91l5.77-1.24V0l-5.77,1.22v4.69Zm0,1.75h5.77v20.11h-5.77V7.65Zm-6.19,1.7l-.37-1.7h-4.97v20.12h5.75v-13.63c1.36-1.77,3.65-1.45,4.37-1.19v-5.29c-.74-.28-3.42-.78-4.78,1.7h0Zm-11.49-6.7l-5.61,1.2-.02,18.41c0,3.4,2.55,5.91,5.95,5.91,1.88,0,3.26-.35,4.02-.76v-4.67c-.74.3-4.37,1.36-4.37-2.05v-8.15h4.37v-4.9h-4.37l.02-5ZM5.82,13.48c0-.9.74-1.24,1.95-1.24,1.99.04,3.94.55,5.7,1.47v-5.39c-1.91-.76-3.79-1.06-5.7-1.06C3.1,7.26,0,9.7,0,13.77c0,6.34,8.74,5.33,8.74,8.07,0,1.06-.92,1.4-2.21,1.4-1.91,0-4.34-.78-6.28-1.84v5.47c2.14.92,4.3,1.3,6.28,1.3,4.78,0,8.07-2.37,8.07-6.48-.02-6.85-8.78-5.63-8.78-8.21h0Z"/></svg>