<?xml version="1.0" encoding="UTF-8"?><svg id="Layer_1" xmlns="http://www.w3.org/2000/svg" viewBox="0 0 3396.88 900.87"><defs><style>.cls-1{fill:#4153af;}.cls-2{fill:#fff;}</style></defs><g><path class="cls-1" d="m384.77,482.73c96.77,0,175.21-78.45,175.21-175.21s-78.45-175.21-175.21-175.21-175.21,78.45-175.21,175.21c0,48.31,19.56,92.06,51.18,123.75l-178.48,416.58c-8.27,19.31.67,41.67,19.98,49.94h0c19.31,8.27,41.67-.67,49.94-19.98l173.63-405.25c18.43,6.58,38.27,10.18,58.96,10.18Zm16.51-292.78c34.32,0,62.14,27.82,62.14,62.14s-27.82,62.14-62.14,62.14-62.14-27.82-62.14-62.14,27.82-62.14,62.14-62.14Z"/><path class="cls-1" d="m392.46,0C175.71,0,0,175.71,0,392.47c0,108.02,43.64,205.85,114.24,276.81l94.73-221.12c-30.91-38.56-49.43-87.48-49.43-140.65,0-124.37,101.33-225.53,225.78-225.23,122.2.3,222.56,99.12,224.65,221.3,1.48,86.01-45.53,161.4-115.43,200.57-4.91,2.75-9.91,5.32-15.04,7.7-28.81,13.41-60.9,20.91-94.72,20.91-12.62,0-30.66-1.25-43.51-3.29l71.61,31.54c26.73,11.58,39.05,42.6,27.58,69.37l-66.04,154.14c5.98.27,11.99.41,18.04.41,216.76,0,392.47-175.71,392.47-392.46S609.04,0,392.46,0Z"/><polygon class="cls-1" points="210.87 844.16 289.43 878.96 317.62 813.16 239.05 778.37 210.87 844.16"/><polygon class="cls-1" points="255.45 740.13 334 774.92 362.2 709.11 283.63 674.34 255.45 740.13"/><polygon class="cls-1" points="301.72 632.14 301.61 632.38 300.07 636.11 378.58 670.88 406.77 605.08 328.21 570.3 301.76 632.03 301.72 632.14"/></g><g><path class="cls-2" d="m1018.26,670c-42.28,0-72.37-10.07-90.27-30.22s-26.86-53.59-26.86-100.34V132.09h112.65v417.04c0,13.43,2.61,22.75,7.83,27.98,5.22,5.22,14.05,7.83,26.49,7.83,8.95,0,18.39-.99,28.35-2.98v81.32c-19.4,4.48-38.79,6.71-58.19,6.71Z"/><path class="cls-2" d="m1260.72,672.24c-77.1,0-115.64-46.26-115.64-138.77v-252.91h112.66v244.71c0,20.4,3.36,34.95,10.07,43.64,6.71,8.71,18.52,13.06,35.44,13.06,25.37,0,47.75-8.95,67.15-26.86v-274.55h112.65v382.73h-94.75l-7.46-57.45c-28.35,44.27-68.39,66.4-120.12,66.4Z"/><path class="cls-2" d="m1583.02,663.28V132.09h111.16v311.85l121.61-163.39h115.64l-131.31,173.08,151.45,209.64h-122.35l-135.04-191.74v191.74h-111.16Z"/><path class="cls-2" d="m2023.18,663.28v-301.41h-53.72v-81.32h165.62v382.73h-111.91Zm-4.48-448.38v-102.21h114.15v102.21h-114.15Z"/><path class="cls-2" d="m2402.92,670c-35.81,0-64.42-4.73-85.8-14.18-21.39-9.44-36.68-24.74-45.88-45.88-9.21-21.13-13.8-49.61-13.8-85.42v-162.64h-64.16v-77.59l40.29-2.24c11.44-.99,19.64-3.36,24.62-7.09,4.97-3.73,7.71-10.32,8.21-19.77l6.71-86.54h94v111.91h111.16v81.32h-111.16v171.59c0,19.9,3.98,33.46,11.94,40.66,7.95,7.22,23.37,10.82,46.25,10.82,6.96,0,14.29-.37,22.01-1.12,7.71-.75,16.79-1.87,27.23-3.36v81.32c-10.45,2.98-21.39,5.09-32.83,6.34-11.45,1.24-24.38,1.87-38.79,1.87Z"/><path class="cls-2" d="m2723.72,670c-35.81,0-64.42-4.73-85.8-14.18-21.39-9.44-36.68-24.74-45.88-45.88-9.21-21.13-13.8-49.61-13.8-85.42v-162.64h-64.16v-77.59l40.29-2.24c11.44-.99,19.64-3.36,24.62-7.09,4.97-3.73,7.71-10.32,8.21-19.77l6.71-86.54h94v111.91h111.16v81.32h-111.16v171.59c0,19.9,3.98,33.46,11.94,40.66,7.95,7.22,23.37,10.82,46.25,10.82,6.96,0,14.29-.37,22.01-1.12,7.71-.75,16.79-1.87,27.23-3.36v81.32c-10.45,2.98-21.39,5.09-32.83,6.34-11.45,1.24-24.38,1.87-38.79,1.87Z"/><path class="cls-2" d="m2983.35,672.24c-77.1,0-115.64-46.26-115.64-138.77v-252.91h112.66v244.71c0,20.4,3.36,34.95,10.07,43.64,6.71,8.71,18.52,13.06,35.44,13.06,25.37,0,47.75-8.95,67.15-26.86v-274.55h112.65v382.73h-94.75l-7.46-57.45c-28.35,44.27-68.39,66.4-120.12,66.4Z"/></g></svg>