<?xml version="1.0" encoding="UTF-8"?><svg id="Layer_1" xmlns="http://www.w3.org/2000/svg" viewBox="0 0 2718.34 685.88"><defs><style>.cls-1{fill:#4153af;}.cls-2{fill:#020817;}</style></defs><g><path class="cls-1" d="m399.89,562.62c-12.67,3.4-24.9,7.19-37.35,9.99-23.63,5.31-47.62,5.94-71.7,4-.13-.01-.25-.13-.9-.51,2.98-6.84,5.89-13.81,9.04-20.67,8.08-17.63,16.31-35.19,24.39-52.81,5.32-11.61,10.64-23.22,15.69-34.94,6.45-14.99.83-35.5-12.94-43.84-9.33-5.66-19.67-9.69-29.64-14.26-5.01-2.29-10.21-4.15-15.29-6.86,1.35-.06,2.7-.17,4.05-.17,7.76-.03,15.52.14,23.27-.09,17.97-.55,35.08-4.99,51.81-11.37,14.3-5.45,27.24-13.27,38.75-23.07,11.28-9.61,21.2-20.72,29.56-33.1,11.41-16.88,18.88-35.46,22.92-55.31,3.7-18.17,4.34-36.62,2.12-55.05-2.47-20.48-8.33-40.12-16.49-59-6.09-14.11-14.91-26.62-24.41-38.67-9.4-11.93-20.26-22.36-32.38-31.45-24.69-18.51-52.43-29-83.18-32.02-20.38-2-40.33-.33-59.74,5.78-12.19,3.83-24.41,8.16-35.72,14.01-9.6,4.96-18.23,12.03-26.71,18.88-11.33,9.14-20.72,20.24-29.14,32.09-9.71,13.66-16.34,28.84-21.44,44.74-6.65,20.77-8.34,42.2-6.51,63.69,2.05,24.12,9.05,46.99,22.03,67.7,4.06,6.48,8.7,12.59,12.83,19.02.83,1.3,1.24,3.65.65,4.98-6.02,13.42-12.27,26.74-18.49,40.07-6.68,14.32-13.31,28.66-20.13,42.91-6.54,13.65-13.43,27.13-19.93,40.8-5.83,12.27-11.33,24.69-17.54,38.28-7-9.05-13.54-17.38-19.97-25.81-10.12-13.27-18.33-27.71-25.59-42.69-8.83-18.2-15.71-37.16-21.21-56.62-4.41-15.62-7.65-31.47-8.63-47.67-.97-16.07-2.47-32.22-1.75-48.24,1.35-29.89,7.25-59.05,18.39-86.97,9.09-22.79,20.14-44.53,34.99-64.17,6.63-8.77,13.27-17.57,20.44-25.9,13.64-15.84,29.27-29.52,46.08-41.97,13.19-9.77,26.84-18.82,41.74-25.55,14.98-6.76,30.39-12.68,45.96-17.97C230.23,5.14,253.42,1.26,277.19.26c22.64-.96,44.94.74,67.14,5.07,21.43,4.18,42.21,10.4,62.18,19.14,23.58,10.32,45.7,23.18,65.17,40.18,10.45,9.12,20.97,18.21,30.72,28.04,14.23,14.35,26.31,30.56,36.22,48.15,7.75,13.76,14.95,27.93,21.1,42.47,6.21,14.68,11.27,29.89,13.85,45.78,2,12.34,4.81,24.58,6.25,36.98,1,8.64.22,17.47.38,26.21.41,23.23-2.43,46.1-8.5,68.47-4.07,14.99-8.4,29.98-13.83,44.51-6.68,17.87-15.4,34.84-25.94,50.85-13.04,19.8-28.28,37.63-45.45,53.99-14.86,14.16-31.33,25.99-49.25,35.65-11.89,6.41-24.62,11.26-37.33,16.86m62.29-84.68c8.35-2,13.88-6.68,14.74-15.68,1.05-11.01-3.67-18.48-14.27-20.33-10.67-1.87-18.24,2.13-21.18,13.61-3.08,11.99,6.2,22.26,20.71,22.41m60.57-88.62c-.46-2.55-.35-5.39-1.48-7.6-3.69-7.19-14.31-10.17-21.97-6.53-8.12,3.87-9.77,11.84-7.23,20.33,2.33,7.8,9.72,11.48,18.26,10.26,7.21-1.03,12.11-7.16,12.43-16.47m-14.98-215.12c5.11-3.59,7-8.49,6.61-14.69-.41-6.55-3.72-11.05-9.39-13.5-5.83-2.52-11.72-1.83-16.64,2.51-4.52,3.98-6.73,9.1-5.41,15.16,2.55,11.7,12.79,15.84,24.83,10.52M52.26,261.6c2.54,3.22,5.14,6.4,7.61,9.68,1.23,1.64,2.23,3.46,3.33,5.2,1.3-1.74,3.02-3.3,3.83-5.24,2.54-6.04,6.03-10.68,12.98-12.07,1.78-.36,3.25-2.31,4.86-3.52-1.39-1.63-2.47-3.95-4.23-4.76-5.38-2.47-10.08-5.49-12.87-10.91-.66-1.28-1.24-2.63-2.08-3.8-.71-.99-1.74-1.75-2.62-2.61-.79.9-1.87,1.68-2.31,2.73-2.35,5.68-5.86,10.19-11.6,12.82-1.96.9-3.83,2.08-5.54,3.39-.91.7-1.99,2.01-1.9,2.95.08.96,1.34,2.11,2.36,2.63,2.45,1.24,5.06,2.15,8.18,3.5m423.13,32.34c-3.64,4.44-3.67,9.04.36,13.09,2.95,2.96,6.37,5.45,9.44,8.3,3.08,2.86,5.89,1.62,8.46-.48,3.24-2.65,6.25-5.58,9.33-8.42,4.44-4.1,4.66-7.11.39-11.39-3.06-3.07-6.55-5.71-9.74-8.66-3.26-3.01-6.77-2.51-9.89-.31-2.93,2.07-5.35,4.86-8.35,7.87M88.59,145.38c-9.1-.68-14.64,3.03-16.28,11.32-1.04,5.26.02,10.22,4.18,13.91,4.94,4.38,10.61,5.13,16.6,2.22,5.08-2.47,7.37-6.69,7.51-12.27.19-7.68-2.84-11.79-12-15.18m19.7,173.75c-8.97-2.54-15.15,2.46-14.25,11.55.58,5.92,8.01,10.86,13.62,9.03,4.66-1.52,7.25-4.69,7.82-9.32.65-5.18-2.13-8.68-7.19-11.26M399.86,58.81c-.72-.04-1.45-.04-2.17-.14-4.49-.62-7.55,1.46-9.24,5.37-1.5,3.48.26,8.48,3.36,10.83,3.15,2.38,7.87,2.39,11.23.01,5.57-3.94,4.37-11.6-3.19-16.08m-38.68,439.3c1.27.16,2.55.42,3.82.47,5.53.22,8.92-3.35,8.75-9.15-.16-5.44-4.45-9.81-9.48-8.55-2.82.7-5.83,3.07-7.45,5.54-2.04,3.1.13,8.06,4.36,11.69m18.16-73.5c-.5-4.6-4.46-4.81-7.5-5.01-1.82-.12-5.16,1.78-5.41,3.2-.53,2.99-.26,6.69,1.15,9.3,1.25,2.31,4.45,3.69,7.66,2.07,3.72-1.87,5.45-4.67,4.1-9.56M55.97,342.77c-1.23-.62-2.4-1.52-3.7-1.81-3.57-.82-6.33.65-7.91,3.85-1.46,2.96.4,9.18,3.41,9.82,2.6.55,6.24.07,8.27-1.46,3.01-2.26,2.62-7.27-.08-10.39m474.12-92.32c1.39-.31,2.84-.46,4.16-.97,3.21-1.22,4.17-3.95,3.79-7.01-.45-3.63-2.44-5.99-6.4-6.48-3.31-.4-5.59.85-7.06,3.66-2.07,3.97-.36,7.65,5.51,10.8m-103.42,120.18c-.72.11-1.45.19-2.16.33-3.71.74-5.71,3.44-5.29,7.14.41,3.62,3.78,6.75,7.14,6.74,3.52,0,5.87-1.45,6.44-5.08.84-5.39-.56-7.7-6.12-9.13m21.34-256.26c2.69,3.14,6.82,3.82,8.74.75,1.3-2.08,2.01-6.62.84-7.67-1.79-1.6-5.78-2.15-8.2-1.31-3.33,1.16-3.45,4.55-1.39,8.23Z"/><path class="cls-1" d="m394.31,159.85c9.91,15.23,15.72,31.79,18.91,49.17,2.64,14.35,2.47,28.9.6,43.44-2.82,21.94-10.91,41.7-24.02,59.42-13.01,17.58-29.79,30.34-49.87,38.92-20.83,8.9-42.48,12.11-64.81,8.57-10.39-1.65-20.5-5.06-30.73-7.7-.8-.21-1.57-.56-2.57-.93-3.53,8.17-6.98,16.1-10.39,24.05-16.85,39.27-33.69,78.53-50.52,117.81-12.21,28.49-24.35,57.01-36.6,85.48-10.37,24.08-20.92,48.09-31.29,72.18-4.69,10.9-13.64,15.65-24.68,16.41-10.83.74-18.95-4.79-24.67-13.69-5.84-9.08-5.51-18.47-1.31-28.24,14.43-33.61,28.65-67.31,42.96-100.97,11.06-26.02,22.11-52.04,33.19-78.05,11.71-27.5,23.46-54.98,35.16-82.49,5.39-12.68,10.63-25.42,16.06-38.08.99-2.32.8-3.78-1.03-5.71-15.26-16.11-26.08-34.81-32.1-56.2-4.54-16.12-6.57-32.67-4.27-49.21,7-50.26,32.69-87.29,79.92-107.54,20.44-8.76,42.22-11.29,64.52-8.63,40.79,4.86,71.92,25.23,95.2,58.49.75,1.07,1.47,2.17,2.37,3.53m-120.16-13.11c-20.23,11.53-28.48,33.89-22.31,54.12,11.02,36.16,56.7,44.88,79.05,19.19,11.32-13.01,15.88-28.02,11.14-44.5-8.38-29.13-39.98-42.43-67.88-28.81Z"/><path class="cls-1" d="m231.75,450.27c3.06-7.23,6.07-14.11,8.96-21.05,1.21-2.91,2.62-3.33,5.67-1.96,15.02,6.76,30.19,13.19,45.29,19.77,3.93,1.71,7.79,3.57,11.82,5.43-7.18,16.33-14.11,32.06-21.2,48.18-8.84-3.79-17.55-7.54-26.27-11.25-10.62-4.51-21.29-8.93-31.86-13.56-.9-.39-1.98-2.41-1.68-3.17,2.9-7.42,6.08-14.73,9.27-22.4Z"/><path class="cls-1" d="m258.95,550.96c-4.12,8.98-8.13,17.64-12.44,26.97-19.51-8.23-39.12-16.5-59.43-25.06,7.13-16.6,14.12-32.87,21.2-49.33,20.24,8.8,39.92,17.36,59.56,25.91-3.05,7.38-5.91,14.29-8.89,21.52Z"/><path class="cls-1" d="m214.56,651.75c-1.03,3.47-2.63,3.56-5.57,2.29-15.54-6.71-31.17-13.2-46.82-19.65-8.22-3.39-8.44-3.37-5.2-11.17,5.76-13.89,11.77-27.68,17.85-41.94,5.32,2.39,10.27,4.66,15.25,6.85,13.49,5.94,26.97,11.92,40.52,17.71,2.82,1.2,2.75,2.52,1.67,4.96-5.95,13.51-11.76,27.08-17.7,40.95Z"/></g><g><path class="cls-2" d="m809.72,373.49h158.29v59.88h-232.83V71.58h74.55v301.91Z"/><path class="cls-2" d="m1278.61,71.58v238.3c0,39.59-12.39,70.9-37.15,93.93-24.77,23.03-58.6,34.54-101.51,34.54s-75.79-11.18-100.64-33.55c-24.85-22.36-37.52-53.09-38.02-92.19V71.58h74.55v238.79c0,23.69,5.67,40.96,17.02,51.81,11.34,10.85,27.04,16.28,47.09,16.28,41.91,0,63.2-22.03,63.86-66.1V71.58h74.79Z"/><path class="cls-2" d="m1453.05,288.25l-38.76,41.75v103.37h-74.55V71.58h74.55v164l32.8-44.98,92.19-119.02h91.69l-128.47,160.77,132.19,201.02h-88.71l-92.93-145.12Z"/><path class="cls-2" d="m1742.04,433.37h-74.55V71.58h74.55v361.79Z"/><path class="cls-2" d="m2076.25,131.96h-110.83v301.41h-74.54V131.96h-109.33v-60.38h294.7v60.38Z"/><path class="cls-2" d="m2395.06,131.96h-110.83v301.41h-74.54V131.96h-109.33v-60.38h294.7v60.38Z"/><path class="cls-2" d="m2711.38,71.58v238.3c0,39.59-12.39,70.9-37.15,93.93-24.77,23.03-58.6,34.54-101.51,34.54s-75.79-11.18-100.64-33.55c-24.85-22.36-37.52-53.09-38.02-92.19V71.58h74.55v238.79c0,23.69,5.67,40.96,17.02,51.81,11.34,10.85,27.04,16.28,47.09,16.28,41.91,0,63.2-22.03,63.86-66.1V71.58h74.79Z"/></g><g><path class="cls-2" d="m771.79,647.71h77.76v29.42h-114.38v-177.73h36.62v148.32Z"/><path class="cls-2" d="m909.49,677.13h-36.62v-177.73h36.62v177.73Z"/><path class="cls-2" d="m1082.95,617.93c-1.38,19.12-8.44,34.18-21.18,45.17-12.74,10.99-29.52,16.48-50.35,16.48-22.79,0-40.71-7.67-53.77-23.01-13.06-15.34-19.59-36.4-19.59-63.17v-10.86c0-17.09,3.01-32.14,9.03-45.17,6.02-13.02,14.63-23.01,25.82-29.97,11.19-6.96,24.19-10.44,39-10.44,20.51,0,37.03,5.49,49.56,16.48,12.53,10.99,19.78,26.41,21.73,46.26h-36.62c-.9-11.47-4.09-19.79-9.58-24.96-5.49-5.17-13.85-7.75-25.08-7.75-12.21,0-21.34,4.38-27.41,13.12s-9.18,22.32-9.34,40.71v13.43c0,19.21,2.91,33.25,8.73,42.11,5.82,8.87,14.99,13.31,27.53,13.31,11.31,0,19.75-2.58,25.33-7.75s8.77-13.16,9.58-23.99h36.62Z"/><path class="cls-2" d="m1213.93,600.11h-70.31v47.61h82.52v29.42h-119.14v-177.73h118.9v29.66h-82.28v42.36h70.31v28.69Z"/><path class="cls-2" d="m1392.16,677.13h-36.62l-71.29-116.94v116.94h-36.62v-177.73h36.62l71.41,117.19v-117.19h36.5v177.73Z"/><path class="cls-2" d="m1516.3,630.5c0-6.92-2.44-12.23-7.32-15.93s-13.67-7.61-26.37-11.72-22.75-8.16-30.15-12.15c-20.18-10.9-30.27-25.59-30.27-44.07,0-9.6,2.71-18.17,8.12-25.7,5.41-7.53,13.18-13.41,23.32-17.64,10.13-4.23,21.5-6.35,34.12-6.35s24.01,2.3,33.94,6.9c9.93,4.6,17.64,11.09,23.13,19.47,5.49,8.38,8.24,17.9,8.24,28.56h-36.62c0-8.14-2.56-14.46-7.69-18.98-5.13-4.52-12.33-6.77-21.61-6.77s-15.91,1.89-20.87,5.68c-4.96,3.78-7.45,8.77-7.45,14.95,0,5.78,2.91,10.62,8.73,14.53,5.82,3.91,14.38,7.57,25.7,10.99,20.83,6.27,36.01,14.04,45.53,23.32s14.28,20.83,14.28,34.67c0,15.38-5.82,27.45-17.46,36.19-11.64,8.75-27.3,13.12-47,13.12-13.67,0-26.12-2.5-37.35-7.51-11.23-5-19.8-11.86-25.7-20.57-5.9-8.71-8.85-18.8-8.85-30.27h36.74c0,19.61,11.72,29.42,35.16,29.42,8.71,0,15.5-1.77,20.39-5.31,4.88-3.54,7.32-8.48,7.32-14.83Z"/><path class="cls-2" d="m1616.77,677.13h-36.62v-177.73h36.62v177.73Z"/><path class="cls-2" d="m1795.23,677.13h-36.62l-71.29-116.94v116.94h-36.62v-177.73h36.62l71.41,117.19v-117.19h36.5v177.73Z"/><path class="cls-2" d="m1967.84,654.67c-6.59,7.89-15.91,14.02-27.95,18.37-12.04,4.35-25.39,6.53-40.04,6.53-15.38,0-28.87-3.36-40.47-10.07-11.6-6.71-20.55-16.46-26.86-29.24-6.31-12.78-9.54-27.79-9.71-45.04v-12.08c0-17.74,2.99-33.1,8.97-46.08,5.98-12.98,14.61-22.91,25.88-29.79,11.27-6.88,24.47-10.31,39.61-10.31,21.08,0,37.56,5.03,49.44,15.08,11.88,10.05,18.92,24.68,21.12,43.88h-35.64c-1.63-10.17-5.23-17.62-10.8-22.34-5.58-4.72-13.25-7.08-23.01-7.08-12.45,0-21.93,4.68-28.44,14.04-6.51,9.36-9.81,23.28-9.89,41.75v11.35c0,18.64,3.54,32.71,10.62,42.24s17.46,14.28,31.13,14.28,23.56-2.93,29.42-8.79v-30.64h-33.33v-26.98h69.95v70.92Z"/></g></svg>