<?xml version="1.0" encoding="UTF-8"?><svg id="Layer_1" xmlns="http://www.w3.org/2000/svg" viewBox="0 0 690.45 792.44"><defs><style>.cls-1{fill:#4153af;}</style></defs><path class="cls-1" d="m338.46,424.63c85.12,0,154.12-69,154.12-154.12s-69-154.12-154.12-154.12-154.12,69-154.12,154.12c0,42.5,17.2,80.98,45.02,108.86l-157,366.43c-7.28,16.98.59,36.65,17.58,43.93h0c16.98,7.28,36.65-.59,43.93-17.58l152.73-356.48c16.21,5.79,33.66,8.95,51.86,8.95Zm14.52-257.54c30.19,0,54.66,24.47,54.66,54.66s-24.47,54.66-54.66,54.66-54.66-24.47-54.66-54.66,24.47-54.66,54.66-54.66Z"/><path class="cls-1" d="m345.22,0C154.56,0,0,154.56,0,345.23c0,95.02,38.39,181.07,100.49,243.49l83.33-194.5c-27.19-33.92-43.48-76.95-43.48-123.72,0-109.4,89.13-198.38,198.6-198.12,107.49.26,195.77,87.19,197.61,194.66,1.3,75.66-40.05,141.97-101.54,176.43-4.32,2.42-8.72,4.68-13.23,6.77-25.34,11.8-53.57,18.39-83.32,18.39-11.1,0-26.97-1.1-38.27-2.89l62.99,27.74c23.51,10.19,34.35,37.47,24.26,61.02l-58.09,135.59c5.26.24,10.55.36,15.87.36,190.67,0,345.23-154.56,345.23-345.22S535.73,0,345.22,0Z"/><polygon class="cls-1" points="185.49 742.55 254.59 773.16 279.39 715.28 210.28 684.68 185.49 742.55"/><polygon class="cls-1" points="224.7 651.04 293.8 681.64 318.6 623.76 249.49 593.17 224.7 651.04"/><polygon class="cls-1" points="265.4 556.05 265.31 556.26 263.95 559.54 333.01 590.13 357.81 532.25 288.7 501.65 265.44 555.95 265.4 556.05"/></svg>