<?xml version="1.0" encoding="UTF-8"?><svg id="Layer_1" xmlns="http://www.w3.org/2000/svg" viewBox="0 0 600 600"><defs><style>.cls-1{fill:#4153af;}</style></defs><g><path class="cls-1" d="m397.16,503.01c-11.22,3.01-22.05,6.37-33.07,8.84-20.93,4.7-42.17,5.26-63.49,3.54-.11,0-.22-.12-.8-.46,2.64-6.06,5.22-12.23,8-18.3,7.15-15.61,14.44-31.16,21.6-46.76,4.71-10.28,9.42-20.56,13.89-30.94,5.71-13.28.73-31.43-11.45-38.82-8.26-5.01-17.41-8.58-26.25-12.62-4.43-2.03-9.04-3.68-13.54-6.07,1.19-.05,2.39-.15,3.58-.15,6.87-.03,13.74.13,20.61-.08,15.91-.49,31.06-4.41,45.88-10.07,12.66-4.83,24.12-11.75,34.31-20.42,9.99-8.51,18.77-18.35,26.18-29.31,10.11-14.95,16.72-31.4,20.29-48.97,3.27-16.09,3.84-32.43,1.87-48.75-2.19-18.14-7.38-35.52-14.6-52.24-5.4-12.49-13.21-23.57-21.61-34.24-8.33-10.57-17.94-19.8-28.67-27.85-21.86-16.39-46.42-25.68-73.65-28.35-18.04-1.77-35.71-.29-52.9,5.11-10.79,3.39-21.62,7.23-31.63,12.4-8.5,4.4-16.14,10.65-23.65,16.71-10.03,8.1-18.35,17.92-25.81,28.42-8.6,12.1-14.47,25.54-18.98,39.62-5.89,18.39-7.38,37.37-5.77,56.4,1.82,21.35,8.01,41.61,19.5,59.95,3.59,5.74,7.71,11.14,11.36,16.85.74,1.15,1.1,3.23.57,4.41-5.33,11.88-10.87,23.67-16.38,35.48-5.92,12.68-11.78,25.38-17.83,37.99-5.79,12.09-11.89,24.02-17.65,36.12-5.16,10.86-10.04,21.87-15.53,33.89-6.2-8.01-11.99-15.39-17.68-22.85-8.96-11.75-16.23-24.54-22.66-37.8-7.82-16.12-13.91-32.9-18.78-50.14-3.91-13.83-6.78-27.86-7.64-42.21-.86-14.23-2.19-28.53-1.55-42.72,1.2-26.46,6.42-52.28,16.28-77.01,8.05-20.18,17.83-39.43,30.98-56.82,5.87-7.77,11.75-15.56,18.1-22.93,12.08-14.02,25.92-26.14,40.8-37.16,11.68-8.65,23.77-16.67,36.96-22.62,13.26-5.99,26.91-11.23,40.7-15.92,19.87-6.76,40.41-10.19,61.45-11.08,20.04-.85,39.79.66,59.45,4.49,18.97,3.7,37.38,9.21,55.06,16.95,20.88,9.14,40.47,20.53,57.71,35.58,9.25,8.07,18.57,16.12,27.2,24.83,12.6,12.71,23.3,27.06,32.07,42.64,6.86,12.19,13.24,24.73,18.68,37.61,5.5,13,9.98,26.47,12.26,40.54,1.77,10.93,4.26,21.76,5.53,32.74.89,7.65.2,15.47.33,23.21.36,20.57-2.15,40.82-7.52,60.63-3.6,13.27-7.44,26.54-12.25,39.41-5.92,15.82-13.64,30.85-22.97,45.03-11.55,17.53-25.04,33.32-40.25,47.81-13.16,12.54-27.74,23.01-43.61,31.57-10.53,5.68-21.8,9.97-33.05,14.93m55.16-74.98c7.39-1.77,12.29-5.92,13.06-13.89.93-9.75-3.25-16.36-12.64-18.01-9.45-1.65-16.15,1.89-18.76,12.05-2.72,10.62,5.49,19.71,18.34,19.85m53.64-78.47c-.41-2.26-.31-4.77-1.31-6.73-3.27-6.37-12.67-9.01-19.45-5.78-7.19,3.42-8.65,10.48-6.4,18,2.07,6.9,8.61,10.17,16.17,9.08,6.39-.92,10.72-6.34,11-14.58m-13.27-190.48c4.52-3.18,6.19-7.52,5.85-13.01-.36-5.8-3.29-9.78-8.31-11.96-5.16-2.23-10.38-1.62-14.74,2.22-4,3.53-5.96,8.06-4.79,13.42,2.25,10.36,11.33,14.03,21.99,9.32M89.33,236.46c2.25,2.85,4.55,5.67,6.74,8.58,1.09,1.45,1.97,3.07,2.95,4.61,1.15-1.54,2.67-2.92,3.39-4.64,2.24-5.35,5.34-9.45,11.49-10.69,1.58-.32,2.88-2.04,4.3-3.12-1.23-1.44-2.18-3.5-3.75-4.22-4.76-2.19-8.92-4.86-11.4-9.66-.59-1.14-1.1-2.33-1.84-3.36-.63-.87-1.54-1.55-2.32-2.31-.7.8-1.66,1.49-2.04,2.42-2.08,5.03-5.19,9.03-10.27,11.35-1.74.79-3.39,1.84-4.91,3-.81.62-1.76,1.78-1.69,2.62.08.85,1.19,1.87,2.09,2.33,2.17,1.1,4.48,1.91,7.25,3.1m374.68,28.63c-3.23,3.93-3.25,8.01.32,11.59,2.61,2.62,5.64,4.82,8.36,7.35,2.73,2.54,5.22,1.43,7.49-.43,2.87-2.35,5.53-4.94,8.26-7.46,3.93-3.63,4.12-6.3.35-10.08-2.71-2.72-5.8-5.05-8.63-7.66-2.89-2.67-5.99-2.22-8.75-.28-2.6,1.83-4.73,4.31-7.39,6.97M121.5,133.55c-8.05-.61-12.96,2.69-14.42,10.02-.93,4.65.02,9.05,3.7,12.32,4.37,3.88,9.39,4.55,14.7,1.97,4.5-2.19,6.52-5.93,6.65-10.86.17-6.8-2.52-10.44-10.62-13.45m17.45,153.85c-7.95-2.25-13.41,2.18-12.62,10.23.52,5.24,7.09,9.61,12.06,7.99,4.13-1.35,6.42-4.16,6.93-8.25.57-4.59-1.89-7.69-6.37-9.97M397.12,56.89c-.64-.04-1.29-.03-1.92-.12-3.97-.55-6.69,1.29-8.18,4.76-1.32,3.08.23,7.51,2.97,9.59,2.79,2.11,6.97,2.12,9.94.01,4.93-3.48,3.87-10.27-2.82-14.24m-34.25,389c1.13.14,2.25.37,3.39.42,4.9.2,7.9-2.96,7.75-8.1-.14-4.82-3.94-8.68-8.39-7.58-2.5.62-5.16,2.72-6.6,4.91-1.81,2.75.11,7.14,3.86,10.35m16.08-65.08c-.44-4.07-3.95-4.26-6.64-4.44-1.61-.11-4.57,1.58-4.79,2.83-.47,2.65-.23,5.93,1.02,8.24,1.11,2.05,3.94,3.27,6.78,1.83,3.3-1.66,4.82-4.13,3.63-8.47m-286.33-72.48c-1.09-.55-2.12-1.34-3.28-1.61-3.17-.73-5.61.57-7,3.41-1.29,2.62.35,8.13,3.02,8.7,2.3.49,5.52.06,7.33-1.3,2.66-2,2.32-6.44-.07-9.2m419.83-81.75c1.23-.28,2.52-.41,3.68-.86,2.84-1.08,3.69-3.5,3.35-6.21-.4-3.22-2.16-5.31-5.67-5.74-2.93-.36-4.95.75-6.25,3.24-1.83,3.51-.32,6.77,4.88,9.56m-91.58,106.42c-.64.1-1.28.17-1.91.29-3.29.66-5.06,3.05-4.69,6.32.36,3.21,3.35,5.98,6.32,5.97,3.12,0,5.2-1.28,5.7-4.5.75-4.77-.5-6.81-5.42-8.09m18.9-226.92c2.38,2.78,6.04,3.39,7.74.66,1.15-1.85,1.78-5.87.75-6.8-1.58-1.42-5.12-1.9-7.26-1.16-2.94,1.03-3.05,4.03-1.23,7.29Z"/><path class="cls-1" d="m392.21,146.36c8.78,13.48,13.92,28.15,16.74,43.54,2.33,12.71,2.18,25.59.53,38.46-2.5,19.42-9.66,36.92-21.27,52.62-11.52,15.56-26.38,26.86-44.16,34.46-18.44,7.88-37.62,10.72-57.38,7.59-9.2-1.46-18.15-4.48-27.21-6.82-.71-.18-1.39-.5-2.28-.82-3.13,7.23-6.18,14.26-9.2,21.3-14.92,34.77-29.83,69.54-44.74,104.31-10.81,25.23-21.56,50.48-32.41,75.69-9.18,21.33-18.53,42.58-27.71,63.91-4.16,9.66-12.08,13.86-21.85,14.53-9.59.66-16.78-4.24-21.85-12.13-5.17-8.04-4.88-16.36-1.16-25.01,12.78-29.76,25.37-59.6,38.04-89.41,9.79-23.04,19.58-46.08,29.39-69.11,10.37-24.35,20.78-48.69,31.13-73.05,4.77-11.23,9.42-22.51,14.22-33.72.88-2.05.71-3.34-.91-5.06-13.51-14.26-23.1-30.82-28.43-49.77-4.02-14.28-5.82-28.93-3.78-43.57,6.19-44.51,28.95-77.3,70.76-95.23,18.1-7.76,37.38-10,57.13-7.64,36.11,4.31,63.69,22.34,84.3,51.79.67.95,1.3,1.92,2.1,3.12m-106.4-11.61c-17.91,10.21-25.22,30.01-19.76,47.92,9.76,32.02,50.2,39.74,70,17,10.02-11.52,14.06-24.81,9.87-39.41-7.42-25.8-35.41-37.57-60.11-25.51Z"/><path class="cls-1" d="m248.27,403.52c2.71-6.4,5.37-12.5,7.93-18.64,1.08-2.58,2.32-2.95,5.02-1.74,13.3,5.99,26.73,11.68,40.1,17.51,3.48,1.52,6.9,3.17,10.47,4.81-6.36,14.46-12.49,28.39-18.77,42.66-7.83-3.35-15.54-6.68-23.26-9.96-9.41-3.99-18.85-7.91-28.21-12.01-.79-.35-1.75-2.14-1.49-2.81,2.57-6.57,5.38-13.04,8.21-19.83Z"/><path class="cls-1" d="m272.36,492.68c-3.65,7.95-7.2,15.62-11.02,23.88-17.27-7.28-34.64-14.61-52.62-22.19,6.32-14.7,12.5-29.1,18.77-43.68,17.92,7.8,35.35,15.37,52.74,22.94-2.7,6.53-5.23,12.65-7.87,19.05Z"/><path class="cls-1" d="m233.04,581.93c-.91,3.07-2.33,3.16-4.93,2.03-13.76-5.94-27.6-11.68-41.46-17.4-7.28-3-7.48-2.98-4.61-9.89,5.1-12.3,10.42-24.51,15.81-37.14,4.71,2.12,9.09,4.12,13.5,6.07,11.95,5.26,23.88,10.55,35.88,15.68,2.49,1.07,2.43,2.23,1.48,4.39-5.27,11.96-10.41,23.98-15.67,36.26Z"/></g><rect class="cls-1" x="72.88" y="207.71" width="53.38" height="46.44"/><rect class="cls-1" x="101.21" y="124.8" width="36.47" height="40.67"/><rect class="cls-1" x="118.21" y="282.75" width="32.59" height="28.34"/><rect class="cls-1" x="74.45" y="301.9" width="32.3" height="24.4"/><rect class="cls-1" x="356.76" y="374.05" width="31.48" height="21.69"/><rect class="cls-1" x="410.72" y="331.28" width="20.81" height="18.89"/><rect class="cls-1" x="473.51" y="329.05" width="36.99" height="41.72"/><rect class="cls-1" x="454.23" y="247.19" width="54.7" height="54.7"/><rect class="cls-1" x="500.27" y="211.65" width="29.52" height="26.88"/><rect class="cls-1" x="465.5" y="124.8" width="43.43" height="43.43"/><rect class="cls-1" x="433.45" y="90.56" width="25.54" height="25.54"/><rect class="cls-1" x="373.32" y="49.24" width="39.19" height="29.52"/><rect class="cls-1" x="423.13" y="387.69" width="47.23" height="42.75"/><rect class="cls-1" x="347.56" y="424.69" width="40.68" height="28.73"/></svg>