<?xml version="1.0" encoding="UTF-8"?><svg id="Layer_1" xmlns="http://www.w3.org/2000/svg" viewBox="0 0 600 600"><defs><style>.cls-1{fill:#4153af;}</style></defs><path class="cls-1" d="m395.49,499.52c-11.03,2.96-21.67,6.26-32.5,8.69-20.57,4.62-41.44,5.17-62.4,3.48-.11,0-.21-.12-.79-.45,2.6-5.96,5.13-12.02,7.86-17.99,7.03-15.34,14.19-30.62,21.22-45.96,4.63-10.1,9.26-20.2,13.65-30.41,5.61-13.05.72-30.89-11.26-38.15-8.12-4.92-17.12-8.43-25.8-12.41-4.36-1.99-8.88-3.62-13.31-5.97,1.17-.05,2.35-.15,3.52-.15,6.75-.03,13.51.12,20.25-.08,15.64-.48,30.53-4.34,45.09-9.9,12.44-4.75,23.71-11.55,33.72-20.07,9.82-8.36,18.45-18.03,25.73-28.81,9.93-14.69,16.43-30.86,19.94-48.13,3.22-15.81,3.78-31.87,1.84-47.91-2.15-17.83-7.25-34.91-14.35-51.34-5.3-12.28-12.98-23.17-21.24-33.65-8.18-10.38-17.63-19.46-28.18-27.37-21.49-16.11-45.62-25.24-72.39-27.86-17.73-1.74-35.1-.28-51.99,5.03-10.61,3.34-21.24,7.1-31.08,12.19-8.36,4.32-15.87,10.47-23.25,16.43-9.86,7.96-18.03,17.62-25.36,27.93-8.45,11.89-14.22,25.1-18.65,38.93-5.79,18.08-7.26,36.73-5.67,55.43,1.78,20.99,7.88,40.9,19.17,58.92,3.53,5.64,7.57,10.95,11.16,16.56.73,1.13,1.08,3.18.56,4.33-5.24,11.68-10.68,23.27-16.1,34.87-5.82,12.46-11.58,24.94-17.52,37.34-5.69,11.88-11.69,23.61-17.34,35.5-5.07,10.68-9.86,21.49-15.27,33.31-6.1-7.87-11.79-15.13-17.38-22.46-8.81-11.55-15.95-24.12-22.27-37.15-7.68-15.84-13.67-32.34-18.46-49.28-3.84-13.59-6.66-27.39-7.51-41.48-.84-13.98-2.15-28.04-1.52-41.99,1.18-26.01,6.31-51.39,16-75.69,7.91-19.83,17.53-38.75,30.45-55.84,5.77-7.63,11.55-15.29,17.79-22.54,11.87-13.78,25.47-25.69,40.1-36.53,11.48-8.5,23.36-16.38,36.33-22.23,13.03-5.88,26.45-11.04,40-15.64,19.53-6.64,39.72-10.01,60.4-10.89,19.7-.83,39.11.64,58.43,4.41,18.65,3.63,36.74,9.05,54.11,16.65,20.52,8.98,39.77,20.18,56.72,34.97,9.09,7.93,18.25,15.85,26.74,24.41,12.38,12.49,22.9,26.6,31.52,41.91,6.74,11.98,13.01,24.31,18.36,36.96,5.4,12.78,9.81,26.02,12.05,39.84,1.74,10.74,4.18,21.39,5.44,32.18.87,7.52.2,15.2.33,22.81.35,20.22-2.11,40.12-7.39,59.59-3.54,13.05-7.31,26.09-12.04,38.73-5.81,15.55-13.4,30.32-22.58,44.25-11.35,17.23-24.61,32.75-39.55,46.98-12.93,12.32-27.26,22.62-42.86,31.03-10.35,5.58-21.43,9.8-32.48,14.67m54.21-73.69c7.26-1.74,12.08-5.81,12.83-13.65.92-9.58-3.19-16.08-12.42-17.7-9.29-1.62-15.87,1.86-18.44,11.84-2.68,10.43,5.4,19.37,18.02,19.5m52.72-77.12c-.4-2.22-.31-4.69-1.29-6.61-3.21-6.26-12.45-8.85-19.12-5.68-7.06,3.36-8.51,10.3-6.29,17.69,2.03,6.78,8.46,9.99,15.89,8.93,6.28-.9,10.53-6.23,10.81-14.33m-13.04-187.21c4.44-3.13,6.09-7.39,5.75-12.78-.36-5.7-3.24-9.61-8.17-11.75-5.07-2.2-10.2-1.59-14.48,2.18-3.93,3.47-5.85,7.92-4.71,13.19,2.22,10.18,11.13,13.78,21.61,9.16M92.95,237.55c2.21,2.8,4.48,5.57,6.62,8.43,1.07,1.43,1.94,3.01,2.9,4.53,1.13-1.51,2.63-2.87,3.33-4.56,2.21-5.26,5.25-9.29,11.29-10.5,1.55-.31,2.83-2.01,4.23-3.07-1.21-1.42-2.15-3.44-3.68-4.14-4.68-2.15-8.77-4.78-11.2-9.49-.58-1.12-1.08-2.29-1.81-3.3-.62-.86-1.51-1.52-2.28-2.27-.68.79-1.63,1.46-2.01,2.37-2.05,4.94-5.1,8.87-10.09,11.16-1.71.78-3.33,1.81-4.82,2.95-.79.61-1.73,1.75-1.66,2.57.07.83,1.17,1.84,2.06,2.29,2.13,1.08,4.4,1.88,7.12,3.04m368.24,28.14c-3.17,3.87-3.19,7.87.31,11.39,2.57,2.58,5.55,4.74,8.21,7.22,2.68,2.49,5.13,1.41,7.36-.42,2.82-2.31,5.44-4.86,8.12-7.33,3.87-3.56,4.05-6.19.34-9.91-2.67-2.67-5.7-4.97-8.48-7.53-2.84-2.62-5.89-2.19-8.6-.27-2.55,1.8-4.65,4.23-7.27,6.85M124.57,136.41c-7.92-.6-12.74,2.64-14.17,9.85-.91,4.57.02,8.9,3.63,12.11,4.3,3.82,9.23,4.47,14.44,1.93,4.42-2.15,6.41-5.83,6.53-10.67.17-6.68-2.47-10.26-10.44-13.21m17.15,151.21c-7.81-2.21-13.18,2.14-12.4,10.05.51,5.15,6.97,9.45,11.85,7.86,4.06-1.32,6.31-4.09,6.81-8.11.56-4.51-1.86-7.56-6.26-9.8M395.46,61.07c-.63-.04-1.26-.03-1.89-.12-3.91-.54-6.57,1.27-8.04,4.67-1.3,3.03.23,7.38,2.92,9.42,2.74,2.07,6.85,2.08,9.77.01,4.84-3.42,3.81-10.1-2.77-13.99m-33.66,382.31c1.11.14,2.22.36,3.33.41,4.81.19,7.76-2.91,7.61-7.96-.14-4.73-3.88-8.53-8.25-7.44-2.45.61-5.07,2.67-6.49,4.82-1.77,2.7.11,7.01,3.8,10.17m15.8-63.96c-.43-4-3.88-4.18-6.53-4.36-1.58-.11-4.49,1.55-4.71,2.78-.46,2.61-.23,5.83,1,8.1,1.09,2.01,3.87,3.21,6.67,1.8,3.24-1.63,4.74-4.06,3.57-8.32m-281.41-71.23c-1.07-.54-2.09-1.32-3.22-1.58-3.11-.71-5.51.56-6.88,3.35-1.27,2.58.35,7.99,2.97,8.55,2.26.48,5.43.06,7.2-1.27,2.62-1.97,2.28-6.33-.07-9.04m412.61-80.34c1.21-.27,2.47-.4,3.62-.84,2.79-1.06,3.63-3.44,3.3-6.1-.39-3.16-2.12-5.22-5.57-5.64-2.88-.35-4.86.74-6.14,3.18-1.8,3.45-.32,6.66,4.8,9.4m-90,104.59c-.63.1-1.26.17-1.88.29-3.23.65-4.97,3-4.61,6.21.36,3.15,3.29,5.87,6.21,5.87,3.06,0,5.11-1.26,5.6-4.42.73-4.69-.49-6.7-5.33-7.95m18.57-223.02c2.34,2.73,5.94,3.33,7.61.65,1.13-1.81,1.75-5.77.73-6.68-1.55-1.39-5.03-1.87-7.13-1.14-2.89,1.01-3,3.96-1.21,7.17Z"/><path class="cls-1" d="m390.63,149c8.62,13.25,13.68,27.66,16.45,42.79,2.29,12.49,2.15,25.15.52,37.8-2.46,19.09-9.49,36.29-20.91,51.71-11.32,15.3-25.92,26.4-43.4,33.87-18.13,7.74-36.97,10.54-56.4,7.46-9.04-1.43-17.84-4.41-26.74-6.7-.7-.18-1.36-.49-2.24-.81-3.07,7.11-6.08,14.01-9.05,20.93-14.66,34.17-29.32,68.34-43.97,102.52-10.62,24.79-21.19,49.61-31.86,74.39-9.03,20.96-18.21,41.85-27.23,62.81-4.09,9.49-11.87,13.62-21.48,14.28-9.42.65-16.49-4.17-21.47-11.92-5.08-7.9-4.79-16.08-1.14-24.58,12.56-29.25,24.93-58.57,37.38-87.87,9.62-22.64,19.24-45.29,28.88-67.92,10.19-23.93,20.42-47.85,30.6-71.79,4.69-11.03,9.25-22.12,13.98-33.14.87-2.02.69-3.29-.9-4.97-13.28-14.02-22.7-30.29-27.94-48.91-3.95-14.03-5.72-28.43-3.72-42.82,6.09-43.74,28.45-75.97,69.55-93.59,17.79-7.63,36.74-9.83,56.15-7.51,35.49,4.23,62.59,21.96,82.85,50.9.65.93,1.28,1.89,2.07,3.07m-104.57-11.41c-17.6,10.03-24.78,29.5-19.42,47.1,9.59,31.47,49.34,39.05,68.79,16.7,9.85-11.32,13.82-24.39,9.7-38.73-7.29-25.35-34.8-36.92-59.07-25.07Z"/><path class="cls-1" d="m249.15,401.74c2.66-6.29,5.28-12.28,7.8-18.32,1.06-2.53,2.28-2.9,4.93-1.71,13.07,5.88,26.27,11.48,39.41,17.21,3.42,1.49,6.78,3.11,10.29,4.73-6.25,14.21-12.28,27.9-18.45,41.93-7.7-3.3-15.27-6.57-22.87-9.79-9.25-3.93-18.53-7.77-27.72-11.8-.78-.34-1.72-2.1-1.46-2.76,2.52-6.46,5.29-12.82,8.07-19.49Z"/><path class="cls-1" d="m272.83,489.37c-3.59,7.81-7.08,15.35-10.83,23.47-16.98-7.16-34.04-14.36-51.72-21.81,6.21-14.45,12.29-28.6,18.45-42.93,17.62,7.66,34.74,15.11,51.84,22.54-2.65,6.42-5.14,12.44-7.74,18.73Z"/><path class="cls-1" d="m234.19,577.08c-.9,3.02-2.29,3.1-4.85,2-13.52-5.84-27.13-11.48-40.75-17.1-7.16-2.95-7.35-2.93-4.53-9.72,5.02-12.09,10.24-24.09,15.54-36.5,4.63,2.08,8.94,4.05,13.27,5.96,11.74,5.17,23.47,10.37,35.27,15.41,2.45,1.05,2.39,2.2,1.45,4.32-5.18,11.76-10.23,23.57-15.4,35.64Z"/></svg>