<?xml version="1.0" encoding="UTF-8"?><svg id="Layer_1" xmlns="http://www.w3.org/2000/svg" viewBox="0 0 32.17 47"><defs><style>.cls-1{fill:#4153ae;}.cls-2{fill:#fff;}.cls-2,.cls-3{fill-rule:evenodd;}.cls-3{fill:#020817;}.cls-4{fill:#4153af;isolation:isolate;opacity:.53;}</style></defs><circle class="cls-1" cx="16.17" cy="39" r="4"/><circle class="cls-4" cx="16.17" cy="39" r="8"/><path id="desktop-b" class="cls-3" d="m23.43,32l-7.26,6.9-6.7-6.9h-5.3c-2.21,0-4-1.79-4-4V4C.17,1.79,1.96,0,4.17,0h24c2.21,0,4,1.79,4,4v24c0,2.21-1.79,4-4,4h-4.74Z"/><path id="desktop-b-2" class="cls-2" d="m23.43,32l-7.26,6.9-6.7-6.9h-5.3c-2.21,0-4-1.79-4-4V4C.17,1.79,1.96,0,4.17,0h24c2.21,0,4,1.79,4,4v24c0,2.21-1.79,4-4,4h-4.74Z"/><path class="cls-3" d="m12.83,21h-2.66c-1.15,0-2-.9-2-2v-9c0-1.1.85-2,2-2h12c1.15,0,2,.9,2,2v9c0,1.1-.85,2-2,2h-2.67c.96,0,1.67.67,1.67,1.5s-.71,1.5-1.67,1.5h-6.67c-.96,0-1.67-.67-1.67-1.5s.71-1.5,1.66-1.5Zm9.34-11h-12v8h12v-8Z"/></svg>